<svg width="73" height="73" viewBox="0 0 73 73" fill="none" xmlns="http://www.w3.org/2000/svg">
<path d="M33.7623 36.1958L25.5498 58.8563C25.4991 59.0083 25.3724 59.1858 25.1696 59.3885L22.7363 61.7458C22.28 62.2021 21.7609 62.3167 21.1789 62.0895C20.5949 61.8604 20.2522 61.4417 20.1508 60.8333L19.8467 57.5635L19.9227 56.8792L28.4394 33.3062C29.1998 34.016 30.0241 34.6111 30.9123 35.0917C31.7984 35.5743 32.7484 35.9424 33.7623 36.1958ZM39.2373 36.1958C40.2512 35.9424 41.2022 35.5743 42.0904 35.0917C42.9765 34.6111 43.7998 34.016 44.5602 33.3062L53.0769 56.8792C53.1276 57.0313 53.1529 57.2594 53.1529 57.5635L52.8488 60.8333C52.7474 61.4417 52.4057 61.8604 51.8237 62.0895C51.2397 62.3167 50.7196 62.2021 50.2633 61.7458L47.83 59.3885L47.4498 58.8563L39.2373 36.1958ZM36.4998 33.4583C33.9651 33.4583 31.8106 32.5712 30.0363 30.7969C28.262 29.0226 27.3748 26.8681 27.3748 24.3333C27.3748 22.3563 27.9446 20.5941 29.0842 19.0469C30.2259 17.5017 31.6838 16.425 33.4581 15.8167V12.1667C33.4581 11.3049 33.7501 10.582 34.3341 9.99796C34.9161 9.41599 35.638 9.125 36.4998 9.125C37.3616 9.125 38.0845 9.41599 38.6685 9.99796C39.2505 10.582 39.5415 11.3049 39.5415 12.1667V15.8167C41.3158 16.425 42.7737 17.5017 43.9154 19.0469C45.055 20.5941 45.6248 22.3563 45.6248 24.3333C45.6248 26.8681 44.7376 29.0226 42.9633 30.7969C41.189 32.5712 39.0345 33.4583 36.4998 33.4583ZM36.4998 27.375C37.3616 27.375 38.0845 27.083 38.6685 26.499C39.2505 25.917 39.5415 25.1951 39.5415 24.3333C39.5415 23.4715 39.2505 22.7486 38.6685 22.1646C38.0845 21.5827 37.3616 21.2917 36.4998 21.2917C35.638 21.2917 34.9161 21.5827 34.3341 22.1646C33.7501 22.7486 33.4581 23.4715 33.4581 24.3333C33.4581 25.1951 33.7501 25.917 34.3341 26.499C34.9161 27.083 35.638 27.375 36.4998 27.375Z" fill="#F5C65E"/>
</svg>
