<svg width="73" height="73" viewBox="0 0 73 73" fill="none" xmlns="http://www.w3.org/2000/svg">
<path d="M62.9572 60.421L55.1111 52.6233V22.6244L51.4056 15.8094C51.1322 15.2898 50.7221 14.8548 50.2195 14.5513C49.717 14.2478 49.141 14.0874 48.5539 14.0874C47.9668 14.0874 47.3909 14.2478 46.8883 14.5513C46.3857 14.8548 45.9756 15.2898 45.7023 15.8094L42.2223 22.6405V39.7988L12.755 10.4766C12.5297 10.2494 12.2418 10.0944 11.928 10.0315C11.6143 9.96853 11.2889 10.0004 10.9933 10.1232C10.6978 10.2459 10.4454 10.4538 10.2685 10.7205C10.0916 10.9872 9.99817 11.3005 10 11.6205V24.6383H13.4961V27.216H10V37.5271H13.4961V40.1049H10V50.8188H13.4961V53.3966H10V61.5649C10 61.9922 10.1698 62.402 10.4719 62.7041C10.7741 63.0063 11.1838 63.176 11.6111 63.176H61.8134C62.1334 63.1779 62.4467 63.0844 62.7133 62.9075C62.98 62.7306 63.188 62.4783 63.3107 62.1828C63.4334 61.8872 63.4653 61.5618 63.4024 61.2481C63.3394 60.9343 63.1845 60.6464 62.9572 60.421ZM22.8889 50.416V35.8194L37.5017 50.416H22.8889ZM51.8889 53.8155H45.4445V49.9005H51.8889V53.8155ZM51.8889 47.371H45.4445V23.4299L48.57 17.356L51.8889 23.446V47.371Z" fill="#F5C65E"/>
</svg>
